<svg width="26" height="26" viewBox="0 0 26 26" fill="none" xmlns="http://www.w3.org/2000/svg">
<path fill-rule="evenodd" clip-rule="evenodd" d="M13 0C5.8203 0 0 5.8203 0 13C0 20.1797 5.8203 26 13 26C20.1797 26 26 20.1797 26 13C26 5.8203 20.1797 0 13 0ZM10.1417 6.10851C10.8813 6.07486 11.1176 6.06663 13.0006 6.06663H12.9984C14.882 6.06663 15.1175 6.07486 15.857 6.10851C16.5951 6.14232 17.0993 6.25917 17.5413 6.43063C17.9977 6.60758 18.3834 6.84447 18.7691 7.23014C19.1547 7.61552 19.3916 8.00235 19.5693 8.45836C19.7397 8.89921 19.8567 9.40304 19.8914 10.1412C19.9246 10.8807 19.9333 11.117 19.9333 13C19.9333 14.883 19.9246 15.1188 19.8914 15.8583C19.8567 16.5962 19.7397 17.1001 19.5693 17.5411C19.3916 17.997 19.1547 18.3838 18.7691 18.7692C18.3838 19.1549 17.9976 19.3923 17.5417 19.5694C17.1006 19.7409 16.5962 19.8577 15.858 19.8915C15.1185 19.9252 14.8829 19.9334 12.9997 19.9334C11.1169 19.9334 10.8807 19.9252 10.1412 19.8915C9.40318 19.8577 8.89921 19.7409 8.45807 19.5694C8.00235 19.3923 7.61552 19.1549 7.23028 18.7692C6.84476 18.3838 6.60786 17.997 6.43063 17.541C6.25932 17.1001 6.14246 16.5963 6.10851 15.8582C6.075 15.1186 6.06663 14.883 6.06663 13C6.06663 11.117 6.07529 10.8806 6.10837 10.141C6.14159 9.40318 6.25859 8.89921 6.43048 8.45822C6.60815 8.00235 6.84504 7.61552 7.23072 7.23014C7.6161 6.84461 8.00292 6.60772 8.45894 6.43063C8.89979 6.25917 9.40362 6.14232 10.1417 6.10851Z" fill="url(#paint0_linear)"/>
<path fill-rule="evenodd" clip-rule="evenodd" d="M12.3784 7.31619C12.563 7.3159 12.769 7.31619 13.0004 7.31619C14.8516 7.31619 15.071 7.32283 15.802 7.35605C16.478 7.38696 16.8449 7.49992 17.0893 7.59482C17.4129 7.72049 17.6436 7.87071 17.8861 8.11338C18.1288 8.35605 18.279 8.58717 18.4049 8.91073C18.4998 9.15484 18.6129 9.52173 18.6437 10.1977C18.6769 10.9286 18.6842 11.1482 18.6842 12.9985C18.6842 14.8489 18.6769 15.0685 18.6437 15.7994C18.6128 16.4754 18.4998 16.8423 18.4049 17.0864C18.2793 17.4099 18.1288 17.6403 17.8861 17.8828C17.6434 18.1255 17.413 18.2757 17.0893 18.4014C16.8452 18.4967 16.478 18.6094 15.802 18.6403C15.0711 18.6735 14.8516 18.6808 13.0004 18.6808C11.149 18.6808 10.9296 18.6735 10.1987 18.6403C9.52267 18.6091 9.15578 18.4962 8.91123 18.4013C8.58767 18.2756 8.35656 18.1254 8.11389 17.8827C7.87122 17.64 7.721 17.4095 7.59504 17.0858C7.50014 16.8417 7.38704 16.4748 7.35627 15.7988C7.32305 15.0679 7.31641 14.8483 7.31641 12.9968C7.31641 11.1453 7.32305 10.9269 7.35627 10.196C7.38718 9.52 7.50014 9.15311 7.59504 8.9087C7.72071 8.58514 7.87122 8.35403 8.11389 8.11136C8.35656 7.86869 8.58767 7.71847 8.91123 7.59251C9.15564 7.49718 9.52267 7.38451 10.1987 7.35345C10.8383 7.32456 11.0862 7.3159 12.3784 7.31445V7.31619Z" fill="#C645A5"/>
<path fill-rule="evenodd" clip-rule="evenodd" d="M16.7011 8.46709C16.2418 8.46709 15.8691 8.83932 15.8691 9.29881C15.8691 9.75814 16.2418 10.1308 16.7011 10.1308C17.1605 10.1308 17.5332 9.75814 17.5332 9.29881C17.5332 8.83947 17.1605 8.4668 16.7011 8.4668V8.46709Z" fill="white"/>
<path fill-rule="evenodd" clip-rule="evenodd" d="M13 9.43896C11.0337 9.43896 9.43945 11.0332 9.43945 12.9996C9.43945 14.9659 11.0337 16.5594 13 16.5594C14.9664 16.5594 16.5601 14.9659 16.5601 12.9996C16.5601 11.0332 14.9662 9.43896 12.9999 9.43896L13 9.43896Z" fill="white"/>
<path fill-rule="evenodd" clip-rule="evenodd" d="M13.0006 10.689C14.2769 10.689 15.3117 11.7236 15.3117 13.0001C15.3117 14.2764 14.2769 15.3112 13.0006 15.3112C11.7241 15.3112 10.6895 14.2764 10.6895 13.0001C10.6895 11.7236 11.7241 10.689 13.0006 10.689V10.689Z" fill="#C645A5"/>
<defs>
<linearGradient id="paint0_linear" x1="13" y1="0" x2="13" y2="26" gradientUnits="userSpaceOnUse">
<stop stop-color="#9757CF"/>
<stop offset="0.546875" stop-color="#C944A2"/>
<stop offset="1" stop-color="#FFCD64"/>
</linearGradient>
</defs>
</svg>
