<svg width="28" height="26" viewBox="0 0 28 26" fill="none" xmlns="http://www.w3.org/2000/svg">
<path d="M13 0C5.82141 0 0 5.82141 0 13C0 20.1786 5.82141 26 13 26C20.1786 26 26 20.1786 26 13C26 5.82141 20.1786 0 13 0ZM19.5218 9.94668V11.7069C18.6918 11.7072 17.8854 11.5446 17.1248 11.2237C16.6357 11.0172 16.18 10.7512 15.7633 10.4297L15.7758 15.8477C15.7705 17.0677 15.2878 18.214 14.4143 19.0774C13.7033 19.7802 12.8025 20.2271 11.826 20.3718C11.5966 20.4058 11.3631 20.4232 11.127 20.4232C10.0818 20.4232 9.08944 20.0846 8.2777 19.4599C8.12495 19.3423 7.97885 19.2148 7.83976 19.0774C6.893 18.1417 6.40479 16.8734 6.487 15.5393C6.54972 14.5237 6.95632 13.5551 7.63415 12.796C8.53094 11.7915 9.78555 11.2339 11.127 11.2339C11.3631 11.2339 11.5966 11.2516 11.826 11.2856V11.9364V13.7468C11.6085 13.6751 11.3762 13.6356 11.1342 13.6356C9.90869 13.6356 8.91719 14.6355 8.93552 15.862C8.94715 16.6467 9.37579 17.3327 10.008 17.7108C10.3051 17.8885 10.6469 17.9986 11.0117 18.0186C11.2975 18.0343 11.5719 17.9945 11.826 17.9106C12.7017 17.6213 13.3333 16.7989 13.3333 15.8289L13.3362 12.2007V5.5768H15.7603C15.7627 5.81699 15.787 6.05135 15.8323 6.27844C16.0153 7.19763 16.5334 7.9951 17.2545 8.53876C17.8833 9.01301 18.6662 9.29414 19.5148 9.29414C19.5154 9.29414 19.5224 9.29414 19.5218 9.29358V9.94668H19.5218Z" fill="#E43252"/>
<path d="M15 0C7.82141 0 2 5.82141 2 13C2 20.1786 7.82141 26 15 26C22.1786 26 28 20.1786 28 13C28 5.82141 22.1786 0 15 0ZM21.5218 9.94668V11.7069C20.6918 11.7072 19.8854 11.5446 19.1248 11.2237C18.6357 11.0172 18.18 10.7512 17.7633 10.4297L17.7758 15.8477C17.7705 17.0677 17.2878 18.214 16.4143 19.0774C15.7033 19.7802 14.8025 20.2271 13.826 20.3718C13.5966 20.4058 13.3631 20.4232 13.127 20.4232C12.0818 20.4232 11.0894 20.0846 10.2777 19.4599C10.1249 19.3423 9.97885 19.2148 9.83976 19.0774C8.893 18.1417 8.40479 16.8734 8.487 15.5393C8.54972 14.5237 8.95632 13.5551 9.63415 12.796C10.5309 11.7915 11.7855 11.2339 13.127 11.2339C13.3631 11.2339 13.5966 11.2516 13.826 11.2856V11.9364V13.7468C13.6085 13.6751 13.3762 13.6356 13.1342 13.6356C11.9087 13.6356 10.9172 14.6355 10.9355 15.862C10.9471 16.6467 11.3758 17.3327 12.008 17.7108C12.3051 17.8885 12.6469 17.9986 13.0117 18.0186C13.2975 18.0343 13.5719 17.9945 13.826 17.9106C14.7017 17.6213 15.3333 16.7989 15.3333 15.8289L15.3362 12.2007V5.5768H17.7603C17.7627 5.81699 17.787 6.05135 17.8323 6.27844C18.0153 7.19763 18.5334 7.9951 19.2545 8.53876C19.8833 9.01301 20.6662 9.29414 21.5148 9.29414C21.5154 9.29414 21.5224 9.29414 21.5218 9.29358V9.94668H21.5218Z" fill="#6AE8E2"/>
<path d="M14 0C6.82141 0 1 5.82141 1 13C1 20.1786 6.82141 26 14 26C21.1786 26 27 20.1786 27 13C27 5.82141 21.1786 0 14 0ZM20.5218 9.94668V11.7069C19.6918 11.7072 18.8854 11.5446 18.1248 11.2237C17.6357 11.0172 17.18 10.7512 16.7633 10.4297L16.7758 15.8477C16.7705 17.0677 16.2878 18.214 15.4143 19.0774C14.7033 19.7802 13.8025 20.2271 12.826 20.3718C12.5966 20.4058 12.3631 20.4232 12.127 20.4232C11.0818 20.4232 10.0894 20.0846 9.2777 19.4599C9.12495 19.3423 8.97885 19.2148 8.83976 19.0774C7.893 18.1417 7.40479 16.8734 7.487 15.5393C7.54972 14.5237 7.95632 13.5551 8.63415 12.796C9.53094 11.7915 10.7855 11.2339 12.127 11.2339C12.3631 11.2339 12.5966 11.2516 12.826 11.2856V11.9364V13.7468C12.6085 13.6751 12.3762 13.6356 12.1342 13.6356C10.9087 13.6356 9.91719 14.6355 9.93552 15.862C9.94715 16.6467 10.3758 17.3327 11.008 17.7108C11.3051 17.8885 11.6469 17.9986 12.0117 18.0186C12.2975 18.0343 12.5719 17.9945 12.826 17.9106C13.7017 17.6213 14.3333 16.7989 14.3333 15.8289L14.3362 12.2007V5.5768H16.7603C16.7627 5.81699 16.787 6.05135 16.8323 6.27844C17.0153 7.19763 17.5334 7.9951 18.2545 8.53876C18.8833 9.01301 19.6662 9.29414 20.5148 9.29414C20.5154 9.29414 20.5224 9.29414 20.5218 9.29358V9.94668H20.5218Z" fill="#2C2C2C"/>
</svg>
