<svg width="26" height="26" viewBox="0 0 26 26" fill="none" xmlns="http://www.w3.org/2000/svg">
<path d="M13 0C5.82141 0 0 5.82141 0 13C0 20.1786 5.82141 26 13 26C20.1786 26 26 20.1786 26 13C26 5.82141 20.1786 0 13 0ZM19.5218 9.94668V11.7069C18.6918 11.7072 17.8854 11.5446 17.1248 11.2237C16.6357 11.0172 16.18 10.7512 15.7633 10.4297L15.7758 15.8477C15.7705 17.0677 15.2878 18.214 14.4143 19.0774C13.7033 19.7802 12.8025 20.2271 11.826 20.3718C11.5966 20.4058 11.3631 20.4232 11.127 20.4232C10.0818 20.4232 9.08944 20.0846 8.2777 19.4599C8.12495 19.3423 7.97885 19.2148 7.83976 19.0774C6.893 18.1417 6.40479 16.8734 6.487 15.5393C6.54972 14.5237 6.95632 13.5551 7.63415 12.796C8.53094 11.7915 9.78555 11.2339 11.127 11.2339C11.3631 11.2339 11.5966 11.2516 11.826 11.2856V11.9364V13.7468C11.6085 13.6751 11.3762 13.6356 11.1342 13.6356C9.90869 13.6356 8.91719 14.6355 8.93552 15.862C8.94715 16.6467 9.37579 17.3327 10.008 17.7108C10.3051 17.8885 10.6469 17.9986 11.0117 18.0186C11.2975 18.0343 11.5719 17.9945 11.826 17.9106C12.7017 17.6213 13.3333 16.7989 13.3333 15.8289L13.3362 12.2007V5.5768H15.7603C15.7627 5.81699 15.787 6.05135 15.8323 6.27844C16.0153 7.19763 16.5334 7.9951 17.2545 8.53876C17.8833 9.01301 18.6662 9.29414 19.5148 9.29414C19.5154 9.29414 19.5224 9.29414 19.5218 9.29358V9.94668H19.5218Z" fill="#CF5053"/>
</svg>
