<svg width="26" height="26" viewBox="0 0 26 26" fill="none" xmlns="http://www.w3.org/2000/svg">
<path fill-rule="evenodd" clip-rule="evenodd" d="M13 0C5.8203 0 0 5.8203 0 13C0 20.1797 5.8203 26 13 26C20.1797 26 26 20.1797 26 13C26 5.8203 20.1797 0 13 0ZM14.0584 17.1039C13.9303 17.239 13.68 17.2663 13.68 17.2663H12.8512C12.8512 17.2663 11.0227 17.3742 9.41197 15.7285C7.65538 13.933 6.10429 10.3706 6.10429 10.3706C6.10429 10.3706 6.01477 10.1369 6.11175 10.0244C6.22095 9.89727 6.51868 9.88928 6.51868 9.88928L8.49976 9.87664C8.49976 9.87664 8.68627 9.90659 8.81988 10.0031C8.93043 10.083 8.99215 10.2315 8.99215 10.2315C8.99215 10.2315 9.31227 11.0264 9.73616 11.7454C10.5643 13.1494 10.9495 13.4563 11.2303 13.3058C11.6399 13.0868 11.5172 11.3213 11.5172 11.3213C11.5172 11.3213 11.5246 10.6808 11.311 10.3952C11.1455 10.1742 10.8335 10.1096 10.6958 10.0917C10.5839 10.077 10.767 9.82271 11.0044 9.70887C11.3612 9.53778 11.9906 9.52779 12.7346 9.53511C13.3144 9.5411 13.4813 9.57639 13.7078 9.63031C14.2335 9.75484 14.2171 10.1539 14.1817 11.0153C14.1711 11.2729 14.1588 11.5718 14.1588 11.9171C14.1588 11.9947 14.1565 12.0774 14.1541 12.1625C14.1419 12.6038 14.1278 13.1091 14.424 13.2972C14.5759 13.3931 14.9469 13.3112 15.8754 11.764C16.3156 11.0304 16.6452 10.1682 16.6452 10.1682C16.6452 10.1682 16.7177 10.0144 16.8297 9.94853C16.9443 9.8813 17.0989 9.90193 17.0989 9.90193L19.1838 9.88928C19.1838 9.88928 19.8104 9.81539 19.9115 10.0937C20.018 10.3846 19.6775 11.065 18.8257 12.1794C18.0176 13.2369 17.6244 13.6262 17.6605 13.9705C17.6868 14.2221 17.9425 14.4497 18.433 14.8963C19.4569 15.8295 19.7314 16.3205 19.7973 16.4384C19.8028 16.4482 19.8068 16.4554 19.8097 16.4601C20.2689 17.2077 19.3004 17.2663 19.3004 17.2663L17.4482 17.2916C17.4482 17.2916 17.0508 17.3688 16.5272 17.016C16.2529 16.8313 15.9849 16.5297 15.7296 16.2424C15.3398 15.8037 14.9796 15.3984 14.6722 15.4941C14.1561 15.6552 14.1717 16.7464 14.1717 16.7464C14.1717 16.7464 14.1758 16.9801 14.0584 17.1039Z" fill="#4C6C91"/>
</svg>
