<svg width="26" height="26" viewBox="0 0 26 26" fill="none" xmlns="http://www.w3.org/2000/svg">
<path fill-rule="evenodd" clip-rule="evenodd" d="M13 0C5.8203 0 0 5.8203 0 13C0 20.1797 5.8203 26 13 26C20.1797 26 26 20.1797 26 13C26 5.8203 20.1797 0 13 0ZM18.4179 8.5311C19.0146 8.69482 19.4845 9.17724 19.6439 9.78987C19.9337 10.9002 19.9337 13.2169 19.9337 13.2169C19.9337 13.2169 19.9337 15.5335 19.6439 16.6439C19.4845 17.2565 19.0146 17.7389 18.4179 17.9027C17.3366 18.2002 13.0004 18.2002 13.0004 18.2002C13.0004 18.2002 8.66413 18.2002 7.58276 17.9027C6.9861 17.7389 6.51621 17.2565 6.35674 16.6439C6.06704 15.5335 6.06704 13.2169 6.06704 13.2169C6.06704 13.2169 6.06704 10.9002 6.35674 9.78987C6.51621 9.17724 6.9861 8.69482 7.58276 8.5311C8.66413 8.23354 13.0004 8.23354 13.0004 8.23354C13.0004 8.23354 17.3366 8.23354 18.4179 8.5311Z" fill="#CF5053"/>
<path fill-rule="evenodd" clip-rule="evenodd" d="M11.6992 15.5999V11.2666L15.1659 13.4334L11.6992 15.5999Z" fill="#CF5053"/>
</svg>
