<svg width="37" height="31" viewBox="0 0 37 31" fill="none" xmlns="http://www.w3.org/2000/svg">
<path fill-rule="evenodd" clip-rule="evenodd" d="M3.93409 12.2211C2.74752 12.2211 1.78472 13.1798 1.78472 14.3723V27.066C1.78472 28.2585 2.74752 29.2172 3.93409 29.2172H33.0841C34.2484 29.2172 35.2154 28.2601 35.2335 27.0825V14.3723C35.2335 13.1798 34.2707 12.2211 33.0841 12.2211H3.93409ZM0.8125 14.3723C0.8125 12.6508 2.20566 11.2544 3.93409 11.2544H33.0841C34.8125 11.2544 36.2057 12.6508 36.2057 14.3723V27.086L36.2057 27.0927C36.1821 28.7877 34.7938 30.1839 33.0841 30.1839H3.93409C2.20566 30.1839 0.8125 28.7875 0.8125 27.066V14.3723Z" fill="#F5F2E6"/>
<path fill-rule="evenodd" clip-rule="evenodd" d="M8.43678 12.1414C8.43674 12.1414 8.43673 12.1415 8.21002 11.7985L8.43678 12.1414C8.21242 12.288 7.91097 12.2261 7.76352 12.003C7.61608 11.7799 7.67843 11.4802 7.90279 11.3336L8.15406 11.7138C7.90279 11.3336 7.9027 11.3337 7.90279 11.3336L7.92714 11.3178C7.94297 11.3075 7.96638 11.2923 7.99691 11.2725C8.05799 11.2329 8.14763 11.1751 8.26235 11.1015C8.49179 10.9544 8.82168 10.7445 9.2243 10.4927C10.0292 9.98923 11.1264 9.31734 12.2936 8.64487C13.4592 7.97332 14.7022 7.29679 15.7969 6.78671C16.3441 6.5318 16.8618 6.31483 17.3193 6.16069C17.7666 6.00995 18.1959 5.90527 18.552 5.90527C18.9084 5.90527 19.3363 6.01008 19.7813 6.16099C20.2362 6.31527 20.7503 6.53239 21.2929 6.78741C22.3785 7.29768 23.6092 7.97439 24.7624 8.64602C25.9172 9.31858 27.002 9.99055 27.7976 10.494C28.1955 10.7459 28.5215 10.9558 28.7483 11.1029C28.8616 11.1765 28.9502 11.2344 29.0106 11.2739C29.0407 11.2937 29.0639 11.3089 29.0795 11.3192L29.1035 11.335C29.1035 11.3351 29.1036 11.3351 28.8343 11.7375C28.5651 12.14 28.5651 12.1399 28.565 12.1399L28.5426 12.1251C28.5275 12.1152 28.505 12.1004 28.4754 12.081C28.4162 12.0422 28.3289 11.9852 28.2169 11.9125C27.9928 11.7671 27.67 11.5591 27.2755 11.3095C26.4863 10.8101 25.4123 10.1448 24.271 9.48013C23.1282 8.81453 21.9256 8.154 20.8774 7.66135C20.353 7.4149 19.8751 7.21414 19.4674 7.0759C19.0498 6.93429 18.7446 6.87194 18.552 6.87194C18.359 6.87194 18.0521 6.93442 17.6313 7.0762C17.2207 7.21458 16.7386 7.41549 16.2095 7.66204C15.1517 8.15489 13.9364 8.81559 12.781 9.48127C11.6272 10.146 10.5406 10.8114 9.74197 11.3109C9.34284 11.5605 9.01604 11.7685 8.78923 11.9139C8.67583 11.9866 8.58745 12.0437 8.52754 12.0825C8.49759 12.1019 8.47476 12.1167 8.45948 12.1266L8.43678 12.1414ZM29.2391 12.0053C29.0903 12.2275 28.7886 12.2878 28.565 12.1399L28.8343 11.7375L29.1035 11.335C29.327 11.4829 29.3878 11.783 29.2391 12.0053Z" fill="#F5F2E6"/>
<path fill-rule="evenodd" clip-rule="evenodd" d="M18.5525 4.34863C18.821 4.34863 19.0386 4.56503 19.0386 4.83197V6.38875C19.0386 6.65568 18.821 6.87208 18.5525 6.87208C18.284 6.87208 18.0664 6.65568 18.0664 6.38875V4.83197C18.0664 4.56503 18.284 4.34863 18.5525 4.34863Z" fill="#F5F2E6"/>
<path fill-rule="evenodd" clip-rule="evenodd" d="M18.5517 1.78258C17.8607 1.78258 17.2808 2.3457 17.2808 3.05562C17.2808 3.32256 17.0632 3.53895 16.7947 3.53895C16.5262 3.53895 16.3086 3.32256 16.3086 3.05562C16.3086 1.80958 17.326 0.815918 18.5517 0.815918C19.8045 0.815918 20.7948 1.83671 20.7948 3.05562C20.7948 4.27812 19.781 5.29532 18.5517 5.29532C18.2832 5.29532 18.0656 5.07892 18.0656 4.81198C18.0656 4.54505 18.2832 4.32865 18.5517 4.32865C19.2391 4.32865 19.8226 3.74915 19.8226 3.05562C19.8226 2.35849 19.2555 1.78258 18.5517 1.78258Z" fill="#F5F2E6"/>
<path d="M10.6221 20.499V17.0262L9.18453 19.1817H8.66542L7.22788 17.0262V20.499H6.44922V15.3696H6.98829L8.92498 18.2836L10.8617 15.3696H11.3808V20.499H10.6221Z" fill="#F5F2E6"/>
<path d="M16.7301 17.9248C16.7301 19.8009 15.7718 20.6591 14.494 20.6591C13.2162 20.6591 12.2578 19.8009 12.2578 17.9248C12.2578 16.0487 13.2162 15.1904 14.494 15.1904C15.7718 15.1904 16.7301 16.0487 16.7301 17.9248ZM13.0365 17.9248C13.0365 19.3618 13.6355 19.9406 14.494 19.9406C15.3525 19.9406 15.9515 19.3618 15.9515 17.9248C15.9515 16.4877 15.3325 15.9089 14.494 15.9089C13.6355 15.9089 13.0365 16.4877 13.0365 17.9248Z" fill="#F5F2E6"/>
<path d="M17.6094 20.499V15.3696H19.0469C20.4445 15.3696 21.4827 16.168 21.4827 17.9243C21.4827 19.6807 20.4445 20.4791 19.0469 20.4791H17.6094V20.499ZM19.0269 19.7605C20.0252 19.7605 20.7041 19.2416 20.7041 17.9243C20.7041 16.627 20.0252 16.0881 19.0269 16.0881H18.3681V19.7605H19.0269Z" fill="#F5F2E6"/>
<path d="M25.4549 15.3696H26.2336V18.7826C26.2336 20.04 25.2752 20.6587 24.277 20.6587C23.2587 20.6587 22.3203 20.04 22.3203 18.7826V15.3696H23.099V18.8225C23.099 19.6208 23.698 19.9402 24.277 19.9402C24.856 19.9402 25.4549 19.6009 25.4549 18.8225V15.3696Z" fill="#F5F2E6"/>
<path d="M27.3759 19.4416C27.7353 19.741 28.3143 19.9405 28.8334 19.9405C29.4324 19.9405 30.0313 19.701 30.0313 19.0624C30.0313 18.5235 29.5921 18.4436 28.8533 18.284C27.875 18.1043 27.0964 17.8648 27.0964 16.827C27.0964 15.7093 27.9948 15.1704 28.9731 15.1704C29.5521 15.1704 30.211 15.39 30.6902 15.7492L30.2709 16.348C29.9515 16.0686 29.4523 15.8889 29.0131 15.8889C28.454 15.8889 27.895 16.1484 27.895 16.7671C27.895 17.326 28.3342 17.4257 28.8933 17.5255C29.9914 17.7251 30.83 17.9646 30.83 19.0025C30.83 20.1002 29.8716 20.6391 28.8533 20.6391C28.1545 20.6391 27.4557 20.3996 26.9766 20.0204L27.3759 19.4416Z" fill="#F5F2E6"/>
<path d="M6.35156 26.3476V21.9966H9.1268V22.6153H6.99047V23.8727H8.78739V24.4914H6.99047V26.3675H6.35156V26.3476Z" fill="#F5F2E6"/>
<path d="M12.3234 26.3476L11.9641 25.4694H10.0074L9.64802 26.3476H8.94922C9.54819 24.8906 10.1472 23.4336 10.7661 21.9966H11.2054C11.8043 23.4536 12.4033 24.9106 13.0222 26.3476H12.3234ZM11.385 24.0523L11.1854 23.4735L11.0057 22.8748C10.9458 23.0744 10.8659 23.2739 10.806 23.4735L10.6064 24.0523L10.267 24.8507H11.7245L11.385 24.0523Z" fill="#F5F2E6"/>
<path d="M13.6797 25.4494C13.9792 25.7089 14.4783 25.8686 14.9176 25.8686C15.4367 25.8686 15.9358 25.649 15.9358 25.1301C15.9358 24.6711 15.5565 24.6112 14.9375 24.4715C14.099 24.3118 13.4401 24.1122 13.4401 23.234C13.4401 22.276 14.2188 21.8369 15.0174 21.8369C15.5165 21.8369 16.0756 22.0165 16.4749 22.3359L16.1155 22.8548C15.856 22.6153 15.4167 22.4556 15.0374 22.4556C14.5582 22.4556 14.099 22.6752 14.099 23.1941C14.099 23.6532 14.4783 23.753 14.9375 23.8328C15.856 24.0124 16.5947 24.192 16.5947 25.0902C16.5947 26.0282 15.7761 26.4873 14.9176 26.4873C14.3186 26.4873 13.7196 26.2677 13.3203 25.9684L13.6797 25.4494Z" fill="#F5F2E6"/>
<path d="M19.8885 26.3476V24.4715H17.9518V26.3476H17.293V21.9966H17.9518V23.8727H19.8885V21.9966H20.5474V26.3476H19.8885Z" fill="#F5F2E6"/>
<path d="M21.4844 26.3476V21.9966H22.1432V26.3476H21.4844Z" fill="#F5F2E6"/>
<path d="M26.6763 24.1721C26.6763 25.7688 25.8577 26.5073 24.7796 26.5073C23.6814 26.5073 22.8828 25.7688 22.8828 24.1721C22.8828 22.5754 23.7014 21.8369 24.7796 21.8369C25.8577 21.8369 26.6763 22.5754 26.6763 24.1721ZM23.5417 24.1721C23.5417 25.3896 24.0608 25.8885 24.7796 25.8885C25.4983 25.8885 26.0174 25.4095 26.0174 24.1721C26.0174 22.9546 25.4983 22.4556 24.7796 22.4556C24.0408 22.4556 23.5417 22.9346 23.5417 24.1721Z" fill="#F5F2E6"/>
<path d="M30.2331 26.3476L28.0768 23.3338V26.3476H27.418V21.9966H27.8572L30.0135 25.0103V21.9966H30.6724V26.3476H30.2331Z" fill="#F5F2E6"/>
</svg>
