<svg width="110" height="92" viewBox="0 0 110 92" fill="none" xmlns="http://www.w3.org/2000/svg">
<path d="M100.005 90.0709H10.0562C5.55874 90.0709 1.92383 86.4164 1.92383 81.8947V42.5003C1.92383 37.9787 5.55874 34.3242 10.0562 34.3242H100.005C104.502 34.3242 108.137 37.9787 108.137 42.5003V81.9566C108.076 86.4164 104.441 90.0709 100.005 90.0709Z" stroke="black" stroke-width="3" stroke-miterlimit="10" stroke-linecap="round" stroke-linejoin="round"/>
<path d="M23.1172 34.3242C23.1172 34.3242 48.3767 17.7241 55.1537 17.7241C61.9306 17.7241 86.8822 34.3242 86.8822 34.3242" stroke="black" stroke-width="3" stroke-miterlimit="10" stroke-linecap="round" stroke-linejoin="round"/>
<path d="M55.1543 17.724V12.8926" stroke="black" stroke-width="3" stroke-miterlimit="10" stroke-linecap="round" stroke-linejoin="round"/>
<path d="M49.7324 7.37993C49.7324 4.34483 52.1968 1.92914 55.154 1.92914C58.1728 1.92914 60.5755 4.40677 60.5755 7.37993C60.5755 10.3531 58.1112 12.8307 55.154 12.8307" stroke="black" stroke-width="3" stroke-miterlimit="10" stroke-linecap="round" stroke-linejoin="round"/>
<path d="M30.6946 61.5161V50.7384L26.2587 57.4281H24.6569L20.2211 50.7384V61.5161H17.8184V45.5974H19.4818L25.4578 54.6407L31.4339 45.5974H33.0357V61.5161H30.6946Z" fill="black"/>
<path d="M49.5464 53.5258C49.5464 59.3483 46.5892 62.0117 42.6463 62.0117C38.7033 62.0117 35.7461 59.3483 35.7461 53.5258C35.7461 47.7034 38.7033 45.0399 42.6463 45.0399C46.5892 45.0399 49.5464 47.7034 49.5464 53.5258ZM38.1488 53.5258C38.1488 57.9856 39.9971 59.7818 42.6463 59.7818C45.2954 59.7818 47.1437 57.9856 47.1437 53.5258C47.1437 49.0661 45.2338 47.2698 42.6463 47.2698C39.9971 47.2698 38.1488 49.0661 38.1488 53.5258Z" fill="black"/>
<path d="M52.2578 61.5161V45.5974H56.6936C61.0062 45.5974 64.2099 48.075 64.2099 53.5258C64.2099 58.9766 61.0062 61.4542 56.6936 61.4542H52.2578V61.5161ZM56.632 59.2243C59.7125 59.2243 61.8072 57.6139 61.8072 53.5258C61.8072 49.4996 59.7125 47.8272 56.632 47.8272H54.5989V59.2243H56.632Z" fill="black"/>
<path d="M76.4694 45.5974H78.8722V56.1892C78.8722 60.0915 75.915 62.0117 72.8345 62.0117C69.6925 62.0117 66.7969 60.0915 66.7969 56.1892V45.5974H69.1996V56.3131C69.1996 58.7907 71.0479 59.7818 72.8345 59.7818C74.6212 59.7818 76.4694 58.7288 76.4694 56.3131V45.5974Z" fill="black"/>
<path d="M82.3845 58.2333C83.4935 59.1624 85.2801 59.7818 86.8819 59.7818C88.7302 59.7818 90.5785 59.0385 90.5785 57.0564C90.5785 55.384 89.2231 55.1363 86.9436 54.6407C83.9247 54.0833 81.522 53.34 81.522 50.1191C81.522 46.6504 84.2944 44.978 87.3132 44.978C89.0999 44.978 91.1329 45.6593 92.6116 46.7743L91.3178 48.6325C90.332 47.7653 88.7918 47.2078 87.4364 47.2078C85.7114 47.2078 83.9863 48.0131 83.9863 49.9332C83.9863 51.6676 85.3417 51.9773 87.0668 52.287C90.4552 52.9064 93.0428 53.6497 93.0428 56.8706C93.0428 60.2773 90.0856 61.9497 86.9436 61.9497C84.7873 61.9497 82.631 61.2065 81.1523 60.0296L82.3845 58.2333Z" fill="black"/>
<path d="M17.5117 79.6648V66.1617H26.0753V68.0819H19.4832V71.9842H25.028V73.9043H19.4832V79.7268H17.5117V79.6648Z" fill="black"/>
<path d="M35.9334 79.6648L34.8244 76.9394H28.7867L27.6778 79.6648H25.5215C27.3697 75.1432 29.218 70.6215 31.1279 66.1617H32.4833C34.3315 70.6834 36.1798 75.2051 38.0897 79.6648H35.9334ZM33.0377 72.5416L32.4217 70.7454L31.8672 68.8871C31.6824 69.5065 31.4359 70.126 31.2511 70.7454L30.635 72.5416L29.5877 75.0193H34.0851L33.0377 72.5416Z" fill="black"/>
<path d="M40.1226 76.8775C41.0468 77.6827 42.587 78.1782 43.9424 78.1782C45.5442 78.1782 47.0844 77.4969 47.0844 75.8864C47.0844 74.4618 45.9138 74.276 44.004 73.8424C41.4164 73.3469 39.3833 72.7275 39.3833 70.0021C39.3833 67.0289 41.7861 65.6662 44.2504 65.6662C45.7906 65.6662 47.5157 66.2237 48.7478 67.2147L47.6389 68.8252C46.838 68.0819 45.4826 67.5864 44.312 67.5864C42.8334 67.5864 41.4164 68.2677 41.4164 69.8782C41.4164 71.3028 42.587 71.6125 44.004 71.8603C46.838 72.4177 49.1175 72.9752 49.1175 75.7626C49.1175 78.6738 46.5915 80.0984 43.9424 80.0984C42.0941 80.0984 40.2458 79.4171 39.0137 78.488L40.1226 76.8775Z" fill="black"/>
<path d="M59.2826 79.6648V73.8424H53.3065V79.6648H51.2734V66.1617H53.3065V71.9842H59.2826V66.1617H61.3156V79.6648H59.2826Z" fill="black"/>
<path d="M64.2109 79.6648V66.1617H66.244V79.6648H64.2109Z" fill="black"/>
<path d="M80.2291 72.9133C80.2291 77.8685 77.7031 80.1604 74.3763 80.1604C70.9878 80.1604 68.5234 77.8685 68.5234 72.9133C68.5234 67.958 71.0494 65.6662 74.3763 65.6662C77.7031 65.6662 80.2291 67.958 80.2291 72.9133ZM70.5565 72.9133C70.5565 76.6917 72.1584 78.2402 74.3763 78.2402C76.5942 78.2402 78.196 76.7536 78.196 72.9133C78.196 69.1349 76.5942 67.5864 74.3763 67.5864C72.0967 67.5864 70.5565 69.0729 70.5565 72.9133Z" fill="black"/>
<path d="M91.1966 79.6648L84.5429 70.3118V79.6648H82.5098V66.1617H83.8652L90.5189 75.5148V66.1617H92.552V79.6648H91.1966Z" fill="black"/>
</svg>
