<svg width="17" height="20" viewBox="0 0 17 20" fill="none" xmlns="http://www.w3.org/2000/svg">
<path d="M8.50038 0C6.39046 0 4.65858 1.73385 4.65858 3.84615V4.61538H0.864407L0.816769 5.33692L0.0484069 19.1831L0 20H17L16.9524 19.1823L16.184 5.33615L16.1356 4.61538H12.3422V3.84615C12.3422 1.73385 10.6103 0 8.50038 0ZM8.50038 1.53846C9.11173 1.53846 9.69804 1.78159 10.1303 2.21437C10.5626 2.64715 10.8055 3.23412 10.8055 3.84615V4.61538H6.1953V3.84615C6.1953 3.23412 6.43816 2.64715 6.87044 2.21437C7.30273 1.78159 7.88904 1.53846 8.50038 1.53846ZM2.30508 6.15385H4.65858V8.46154H6.1953V6.15385H10.8055V8.46154H12.3422V6.15385H14.6957L15.368 18.4615H1.63354L2.30508 6.15385Z" fill="#2C2C2C"/>
</svg>
