<svg width="33" height="30" viewBox="0 0 33 30" fill="none" xmlns="http://www.w3.org/2000/svg">
<path d="M23.7656 1C20.4632 1 18.0126 3.08426 16.5 6.04094C14.9875 3.08445 12.537 1 9.23438 1C4.47485 1 1 5.10761 1 10.1165C1 16.7405 7.14987 20.8991 15.9019 28.7691C16.2444 29.077 16.7556 29.0769 17.0981 28.7691C25.8421 20.9063 32 16.7413 32 10.1165C32 5.1068 28.5246 1 23.7656 1ZM16.5 26.8285C8.43988 19.6335 2.81641 15.6365 2.81641 10.1165C2.81641 5.98345 5.57553 2.86667 9.23438 2.86667C12.7614 2.86667 14.947 6.22338 15.6246 8.71532C15.869 9.62439 17.128 9.62843 17.3754 8.71532C18.044 6.25642 20.2043 2.86667 23.7656 2.86667C27.4245 2.86667 30.1836 5.98345 30.1836 10.1165C30.1836 15.6397 24.5509 19.6417 16.5 26.8285Z" fill="#D9C9B7" stroke="#D9C9B7"/>
</svg>
