<svg width="22" height="22" viewBox="0 0 22 22" fill="none" xmlns="http://www.w3.org/2000/svg">
<path d="M11 21.9999C4.92494 21.9999 8.96454e-05 17.0751 8.96454e-05 11C8.96454e-05 4.92485 4.92494 0 11 0C17.0752 0 22 4.92485 22 11C22 17.0751 17.0752 21.9999 11 21.9999Z" fill="#F0F0F0"/>
<path d="M0.684278 14.8259C0.242088 13.6343 8.96454e-05 12.3454 8.96454e-05 10.9999C8.96454e-05 9.65436 0.242088 8.36548 0.684278 7.17383H21.3158C21.758 8.36548 22 9.65436 22 10.9999C22 12.3454 21.758 13.6343 21.3158 14.8259L11 15.7825L0.684278 14.8259Z" fill="#0052B4"/>
<path d="M11.0006 22C6.27105 22 2.23909 19.0149 0.684874 14.8261H21.3164C19.7622 19.0149 15.7302 22 11.0006 22Z" fill="#D80027"/>
</svg>
