<svg width="16" height="14" viewBox="0 0 16 14" fill="none" xmlns="http://www.w3.org/2000/svg">
<path d="M11.2812 1C9.78981 1 8.68313 1.94739 8 3.29134C7.31693 1.94748 6.21024 1 4.71875 1C2.56929 1 1 2.86709 1 5.14386C1 8.15477 3.77736 10.045 7.7299 13.6223C7.88458 13.7623 8.11542 13.7622 8.2701 13.6223C12.219 10.0483 15 8.15514 15 5.14386C15 2.86673 13.4305 1 11.2812 1ZM8 12.7402C4.35995 9.46976 1.82031 7.65295 1.82031 5.14386C1.82031 3.2652 3.06637 1.84849 4.71875 1.84849C6.31158 1.84849 7.29866 3.37426 7.60466 4.50696C7.71502 4.92018 8.28361 4.92201 8.39534 4.50696C8.69729 3.38928 9.67292 1.84849 11.2812 1.84849C12.9336 1.84849 14.1797 3.2652 14.1797 5.14386C14.1797 7.65439 11.6359 9.47349 8 12.7402Z" fill="#CF5053" stroke="#CF5053" stroke-width="0.3"/>
</svg>
