<svg width="24" height="21" viewBox="0 0 24 21" fill="none" xmlns="http://www.w3.org/2000/svg">
<path d="M17.1562 0.781738C14.8126 0.781738 13.0735 2.2705 12 4.38241C10.9266 2.27063 9.18752 0.781738 6.84375 0.781738C3.46602 0.781738 1 3.71574 1 7.29353C1 12.025 5.36442 14.9954 11.5756 20.6168C11.8186 20.8367 12.1814 20.8367 12.4244 20.6168C18.6299 15.0005 23 12.0255 23 7.29353C23 3.71516 20.5336 0.781738 17.1562 0.781738ZM12 19.2307C6.27991 14.0914 2.28906 11.2364 2.28906 7.29353C2.28906 4.34134 4.24715 2.11507 6.84375 2.11507C9.34677 2.11507 10.8979 4.51272 11.3788 6.29268C11.5522 6.94201 12.4457 6.9449 12.6212 6.29268C13.0957 4.53632 14.6289 2.11507 17.1562 2.11507C19.7529 2.11507 21.7109 4.34134 21.7109 7.29353C21.7109 11.2386 17.7136 14.0972 12 19.2307Z" fill="#2C2C2C" stroke="#2C2C2C" stroke-width="0.3"/>
</svg>
