<svg width="19" height="21" viewBox="0 0 19 21" fill="none" xmlns="http://www.w3.org/2000/svg">
<path d="M9.42677 11.5691C9.44747 11.5691 9.46816 11.5691 9.49299 11.5691C9.50127 11.5691 9.50955 11.5691 9.51782 11.5691C9.53024 11.5691 9.5468 11.5691 9.55921 11.5691C10.7719 11.5484 11.7527 11.1218 12.477 10.3059C14.0704 8.50843 13.8055 5.42704 13.7766 5.13299C13.6731 2.92549 12.6301 1.86937 11.7693 1.37651C11.1278 1.00791 10.3787 0.809108 9.54266 0.792542H9.51369C9.50955 0.792542 9.50127 0.792542 9.49713 0.792542H9.4723C9.0129 0.792542 8.11066 0.867091 7.24567 1.35995C6.37654 1.8528 5.31703 2.90892 5.21356 5.13299C5.18459 5.42704 4.91971 8.50843 6.51312 10.3059C7.23325 11.1218 8.21413 11.5484 9.42677 11.5691ZM6.3186 5.23653C6.3186 5.2241 6.32273 5.21168 6.32273 5.20339C6.45931 2.23383 8.56592 1.91493 9.46816 1.91493H9.48472C9.49299 1.91493 9.50541 1.91493 9.51782 1.91493C10.6353 1.93978 12.535 2.39536 12.6633 5.20339C12.6633 5.21582 12.6633 5.22824 12.6674 5.23653C12.6715 5.26552 12.9612 8.08184 11.6451 9.56455C11.1236 10.1527 10.4283 10.4426 9.51369 10.4509C9.50541 10.4509 9.50127 10.4509 9.49299 10.4509C9.48472 10.4509 9.48058 10.4509 9.4723 10.4509C8.56178 10.4426 7.86234 10.1527 7.345 9.56455C6.03302 8.09012 6.31446 5.26138 6.3186 5.23653Z" fill="#2C2C2C" stroke="#2C2C2C" stroke-width="0.4"/>
<path d="M17.9988 16.6799C17.9988 16.6758 17.9988 16.6716 17.9988 16.6675C17.9988 16.6344 17.9947 16.6012 17.9947 16.564C17.9699 15.7439 17.9161 13.8263 16.1199 13.2134C16.1074 13.2092 16.0909 13.2051 16.0785 13.2009C14.2119 12.7246 12.6599 11.6478 12.6433 11.6354C12.3909 11.4573 12.0432 11.5194 11.8653 11.7721C11.6873 12.0247 11.7494 12.3726 12.0018 12.5507C12.0722 12.6004 13.7194 13.7476 15.7805 14.2778C16.7448 14.6215 16.8524 15.6528 16.8814 16.5971C16.8814 16.6344 16.8814 16.6675 16.8855 16.7006C16.8897 17.0734 16.8648 17.6491 16.7986 17.9804C16.1281 18.3614 13.5001 19.6785 9.50205 19.6785C5.52061 19.6785 2.87597 18.3573 2.20135 17.9763C2.13514 17.6449 2.10616 17.0692 2.11444 16.6965C2.11444 16.6634 2.11858 16.6302 2.11858 16.5929C2.14755 15.6486 2.25516 14.6174 3.21948 14.2736C5.28056 13.7435 6.92777 12.5921 6.99813 12.5466C7.25059 12.3685 7.31267 12.0206 7.13471 11.7679C6.95674 11.5153 6.60909 11.4532 6.35663 11.6313C6.34007 11.6437 4.79633 12.7205 2.92149 13.1968C2.90494 13.2009 2.89252 13.2051 2.8801 13.2092C1.0839 13.8263 1.0301 15.7439 1.00527 16.5598C1.00527 16.5971 1.00527 16.6302 1.00113 16.6634C1.00113 16.6675 1.00113 16.6716 1.00113 16.6758C0.996988 16.8911 0.992849 17.997 1.2122 18.5519C1.25359 18.6596 1.32809 18.7507 1.42741 18.8129C1.55158 18.8957 4.52731 20.7926 9.50619 20.7926C14.4851 20.7926 17.4608 18.8916 17.585 18.8129C17.6802 18.7507 17.7588 18.6596 17.8002 18.5519C18.0071 18.0011 18.003 16.8953 17.9988 16.6799Z" fill="#2C2C2C" stroke="#2C2C2C" stroke-width="0.4"/>
</svg>
