<svg width="36" height="36" viewBox="0 0 36 36" fill="none" xmlns="http://www.w3.org/2000/svg">
<path d="M18 0C8.0745 0 0 8.0745 0 18C0 27.9255 8.0745 36 18 36C27.9255 36 36 27.9255 36 18C36 8.0745 27.9255 0 18 0ZM18 3C26.3025 3 33 9.6975 33 18C33 26.3025 26.3025 33 18 33C9.6975 33 3 26.3025 3 18C3 9.6975 9.6975 3 18 3ZM18 9C14.7 9 12 11.7 12 15H15C15 13.3245 16.3245 12 18 12C19.6755 12 21 13.3245 21 15C20.9996 15.5606 20.8228 16.1068 20.4946 16.5612C20.1664 17.0157 19.7035 17.3553 19.1715 17.532L18.5625 17.718C17.963 17.92 17.4417 18.3046 17.0718 18.8179C16.7019 19.3312 16.502 19.9473 16.5 20.58V22.5H19.5V20.5785L20.109 20.391C21.2392 20.0111 22.2221 19.287 22.9199 18.3201C23.6178 17.3533 23.9954 16.1923 24 15C24 11.7 21.3 9 18 9ZM16.5 24V27H19.5V24H16.5Z" fill="#D9C9B7"/>
</svg>
