<svg width="20" height="21" viewBox="0 0 20 21" fill="none" xmlns="http://www.w3.org/2000/svg">
<path d="M8.8075 0.781738C3.95118 0.781738 0 4.73291 0 9.58924C0 14.4458 3.95118 18.3967 8.8075 18.3967C13.6641 18.3967 17.615 14.4458 17.615 9.58924C17.615 4.73291 13.6641 0.781738 8.8075 0.781738ZM8.8075 16.7708C4.84765 16.7708 1.626 13.5491 1.626 9.58928C1.626 5.62943 4.84765 2.40774 8.8075 2.40774C12.7673 2.40774 15.989 5.62939 15.989 9.58924C15.989 13.5491 12.7673 16.7708 8.8075 16.7708Z" fill="#2C2C2C"/>
<path d="M19.7619 19.3937L15.1007 14.7325C14.7831 14.4149 14.2687 14.4149 13.9511 14.7325C13.6335 15.0498 13.6335 15.5647 13.9511 15.8821L18.6123 20.5433C18.7711 20.7021 18.979 20.7815 19.1871 20.7815C19.395 20.7815 19.6031 20.7021 19.7619 20.5433C20.0795 20.2259 20.0795 19.711 19.7619 19.3937Z" fill="#2C2C2C"/>
</svg>
