<svg width="36" height="36" viewBox="0 0 36 36" fill="none" xmlns="http://www.w3.org/2000/svg">
<path fill-rule="evenodd" clip-rule="evenodd" d="M26.9042 14.4042L15.2021 26.1062L9 19.9042L11.4042 17.5L15.2021 21.2979L24.5 12L26.9042 14.4042Z" fill="#D9C9B7"/>
<path d="M18 0C8.0745 0 0 8.0745 0 18C0 27.9255 8.0745 36 18 36C27.9255 36 36 27.9255 36 18C36 8.0745 27.9255 0 18 0ZM18 3C26.3025 3 33 9.6975 33 18C33 26.3025 26.3025 33 18 33C9.6975 33 3 26.3025 3 18C3 9.6975 9.6975 3 18 3Z" fill="#D9C9B7"/>
</svg>
