<svg width="20" height="20" viewBox="0 0 20 20" fill="none" xmlns="http://www.w3.org/2000/svg">
<path d="M14.1755 6.45068H13.1286C12.901 6.45068 12.6844 6.56006 12.5505 6.74756L9.04158 11.6136L7.45229 9.40827C7.31836 9.22301 7.10408 9.1114 6.87417 9.1114H5.82729C5.6822 9.1114 5.59738 9.27658 5.6822 9.39488L8.46345 13.252C8.52916 13.3437 8.61577 13.4184 8.71612 13.47C8.81646 13.5215 8.92765 13.5484 9.04046 13.5484C9.15327 13.5484 9.26446 13.5215 9.36481 13.47C9.46515 13.4184 9.55177 13.3437 9.61747 13.252L14.3184 6.73417C14.4054 6.61586 14.3206 6.45068 14.1755 6.45068Z" fill="#CF5053"/>
<path d="M10 0C4.47768 0 0 4.47768 0 10C0 15.5223 4.47768 20 10 20C15.5223 20 20 15.5223 20 10C20 4.47768 15.5223 0 10 0ZM10 18.3036C5.41518 18.3036 1.69643 14.5848 1.69643 10C1.69643 5.41518 5.41518 1.69643 10 1.69643C14.5848 1.69643 18.3036 5.41518 18.3036 10C18.3036 14.5848 14.5848 18.3036 10 18.3036Z" fill="#CF5053"/>
</svg>
